<svg id="Livello_1" class="h-full md:h-auto w-auto md:w-full ml-auto max-w-40 fill-myGreen hover:fill-myBrown transition-fill duration-300 ease-transition01" data-name="Livello 1" xmlns="http://www.w3.org/2000/svg" xmlns:xlink="http://www.w3.org/1999/xlink" viewBox="0 0 200 72.94"><g><g><path d="M2.5,19.6H0v53.02h2.5V19.6Z"></path><path d="M12.23,0h-2.5v72.62h2.5V0Z"></path><path d="M20.82,52.4c-1.05-.61-1.87-1.46-2.45-2.56-.58-1.1-.87-2.35-.87-3.74s.29-2.6.86-3.69,1.39-1.95,2.44-2.57c1.05-.62,2.28-.93,3.68-.93s2.56.26,3.54.79c.97.53,1.72,1.22,2.25,2.06s.85,1.74.97,2.7h-2.59c-.13-.63-.36-1.2-.7-1.71-.33-.51-.79-.92-1.37-1.23s-1.3-.47-2.15-.47-1.58.2-2.23.6-1.17.98-1.54,1.73c-.37.76-.56,1.67-.56,2.72s.19,1.95.56,2.72c.37.77.89,1.35,1.54,1.74.65.39,1.4.59,2.23.59s1.57-.15,2.16-.46c.59-.31,1.05-.72,1.38-1.24s.56-1.1.7-1.72h2.61c-.11.95-.43,1.86-.96,2.7-.54.85-1.3,1.54-2.28,2.08-.99.54-2.18.8-3.58.8s-2.58-.3-3.64-.91Z"></path><path d="M35.49,52.67c-.74-.43-1.31-1.03-1.71-1.81-.39-.78-.59-1.68-.59-2.7s.2-1.94.61-2.72c.41-.78.98-1.39,1.73-1.82s1.63-.65,2.64-.65c1.08,0,2.01.24,2.77.73.76.48,1.33,1.16,1.7,2.02s.51,1.85.43,2.96h-7.55c0,.6.13,1.12.34,1.56.22.44.52.77.9,1,.39.23.85.34,1.38.34.67,0,1.19-.14,1.57-.43s.67-.68.86-1.18h2.33c-.13.54-.38,1.06-.74,1.57-.37.51-.88.93-1.55,1.27s-1.48.51-2.43.51c-1.06,0-1.96-.22-2.7-.65h0ZM40.3,45.76c-.23-.37-.53-.65-.89-.82-.37-.18-.78-.26-1.23-.26-.74,0-1.34.21-1.78.63s-.71,1.03-.8,1.84h5.1c-.03-.55-.15-1.01-.38-1.38h-.02Z"></path><path d="M45.7,43.26h2.29v1.29c.24-.41.62-.77,1.15-1.1.53-.33,1.18-.49,1.95-.49.72,0,1.35.14,1.9.43.55.29.98.71,1.29,1.27s.47,1.25.47,2.08v6.27h-2.35v-5.96c0-.52-.08-.95-.25-1.27-.16-.33-.4-.56-.7-.71-.3-.14-.66-.22-1.08-.22-.54,0-.98.13-1.32.39-.35.26-.6.62-.75,1.07-.16.45-.24.98-.24,1.58v5.12h-2.37v-9.76h0Z"></path><path d="M59.16,52.22c-.5-.54-.75-1.3-.75-2.29v-4.96h-1.67v-1.71h1.67v-2.47h2.35v2.47h2.2v1.71h-2.2v4.92c0,.44.1.76.31.95.21.19.53.28.96.28h.92v1.9h-1.63c-.94,0-1.66-.27-2.17-.8h.01Z"></path><path d="M66.99,52.67c-.74-.43-1.31-1.03-1.71-1.81-.39-.78-.59-1.68-.59-2.7s.2-1.94.61-2.72c.41-.78.98-1.39,1.73-1.82s1.63-.65,2.64-.65c1.08,0,2.01.24,2.77.73.76.48,1.33,1.16,1.7,2.02.37.86.51,1.85.43,2.96h-7.55c.01.6.13,1.12.34,1.56.22.44.52.77.9,1,.38.23.85.34,1.38.34.67,0,1.19-.14,1.57-.43s.67-.68.86-1.18h2.33c-.13.54-.38,1.06-.74,1.57-.37.51-.88.93-1.55,1.27-.67.34-1.48.51-2.43.51-1.06,0-1.96-.22-2.7-.65h.01ZM71.8,45.76c-.23-.37-.53-.65-.89-.82-.37-.18-.78-.26-1.23-.26-.74,0-1.34.21-1.78.63-.44.42-.71,1.03-.8,1.84h5.1c-.03-.55-.15-1.01-.38-1.38h-.02Z"></path><path d="M77.2,43.26h2.29v1.88c.26-.54.66-1,1.21-1.4.54-.4,1.24-.6,2.11-.6h.24v2.29h-.61c-.68,0-1.23.12-1.66.36s-.73.58-.92,1.03c-.19.44-.28,1-.28,1.67v4.53h-2.37v-9.76h0Z"></path><path d="M90.59,44.97h-1.86v-1.71h1.86v-.67c.01-.67.15-1.25.4-1.75s.65-.9,1.18-1.2c.53-.29,1.19-.44,1.97-.44h1.16v1.78h-.76c-.57,0-.99.12-1.24.36s-.38.62-.38,1.15v.76h2.39v1.71h-2.37v8.06h-2.33v-8.06h-.02Z"></path><path d="M99.17,52.66c-.81-.44-1.45-1.05-1.91-1.83-.46-.78-.7-1.69-.7-2.7s.23-1.9.7-2.69c.46-.78,1.1-1.39,1.91-1.82.81-.43,1.72-.65,2.74-.65s1.95.22,2.76.65c.81.43,1.44,1.04,1.9,1.82s.69,1.68.69,2.69-.23,1.92-.69,2.7c-.46.78-1.09,1.4-1.9,1.83-.81.44-1.73.66-2.76.66s-1.93-.22-2.74-.66ZM103.48,51.02c.44-.29.78-.68,1.02-1.19.24-.5.36-1.07.36-1.72s-.12-1.21-.35-1.72c-.24-.5-.57-.89-1.01-1.17-.44-.27-.96-.41-1.56-.41s-1.12.14-1.57.41c-.44.27-.79.66-1.03,1.16s-.36,1.07-.36,1.72.12,1.22.37,1.72c.25.51.59.91,1.03,1.19s.95.42,1.54.42,1.12-.14,1.56-.43v.02Z"></path><path d="M109.88,43.26h2.29v1.88c.26-.54.66-1,1.21-1.4s1.24-.6,2.11-.6h.24v2.29h-.61c-.68,0-1.23.12-1.66.36s-.73.58-.92,1.03c-.19.44-.28,1-.28,1.67v4.53h-2.37v-9.76h0Z"></path><path d="M122.75,39.2h6.12c.88,0,1.64.15,2.3.46.66.31,1.16.73,1.51,1.25.35.53.52,1.13.52,1.79,0,.57-.12,1.09-.35,1.56-.24.46-.56.84-.96,1.14-.41.29-.86.49-1.35.6v-.22c.55.08,1.05.26,1.52.56.46.29.84.69,1.13,1.2.29.5.43,1.07.43,1.72,0,.73-.18,1.38-.55,1.94-.37.56-.9,1.01-1.61,1.33-.71.33-1.55.49-2.53.49h-6.17v-13.82h0ZM130.41,50.49c.42-.35.64-.85.64-1.49s-.21-1.15-.64-1.53c-.43-.38-1.02-.57-1.79-.57h-3.78v-1.92h3.76c.44,0,.83-.08,1.17-.24.33-.16.59-.39.76-.68.18-.29.26-.62.26-1s-.09-.73-.26-1.01c-.18-.28-.43-.49-.76-.64-.33-.14-.72-.22-1.17-.22h-3.43v9.82h3.45c.77,0,1.37-.18,1.79-.53h0Z"></path><path d="M138.25,52.81c-.67-.33-1.19-.81-1.55-1.44-.36-.63-.54-1.38-.54-2.25v-5.86h2.35v5.66c0,.8.2,1.39.59,1.76.39.38.9.57,1.53.57s1.12-.19,1.51-.57.59-.97.59-1.76v-5.66h2.35v5.82c0,.89-.18,1.65-.54,2.28-.36.63-.88,1.12-1.55,1.45s-1.46.5-2.36.5-1.71-.17-2.38-.5Z"></path><path d="M148.3,41.12c-.26-.27-.38-.61-.38-1s.13-.72.38-.98c.26-.26.6-.39,1.03-.39s.8.13,1.06.4.39.59.39.97-.13.73-.39,1-.61.41-1.06.41-.77-.14-1.03-.41ZM148.18,43.26h2.37v9.76h-2.37s0-9.76,0-9.76Z"></path><path d="M154.36,52.38c-.43-.43-.64-1.05-.64-1.87v-11.31h2.35v11.15c0,.29.06.5.2.63.13.13.33.2.61.2h.39v1.84h-.98c-.86,0-1.5-.21-1.93-.64h0Z"></path><path d="M161.3,52.66c-.72-.44-1.28-1.05-1.68-1.83-.4-.78-.6-1.69-.6-2.7s.2-1.86.59-2.64.95-1.39,1.67-1.82c.72-.44,1.55-.66,2.49-.66.55,0,1.04.07,1.49.22.44.14.82.32,1.12.54.3.22.55.45.75.7v-5.25h2.37v13.82h-2.29v-1.35c-.14.2-.36.42-.65.68-.29.25-.67.48-1.15.68s-1.02.29-1.64.29c-.93,0-1.75-.22-2.47-.66v-.02ZM165.87,51.05c.45-.27.79-.65,1.04-1.16.25-.5.37-1.09.37-1.75s-.12-1.25-.37-1.74c-.25-.5-.59-.88-1.04-1.15-.44-.27-.95-.4-1.53-.4s-1.1.13-1.54.39-.77.64-1.01,1.14c-.24.5-.35,1.09-.35,1.76s.12,1.25.35,1.74c.24.5.57.88,1.02,1.16.45.27.96.41,1.53.41s1.08-.13,1.53-.4h0Z"></path><path d="M172.86,41.12c-.26-.27-.38-.61-.38-1s.13-.72.38-.98.6-.39,1.03-.39.8.13,1.06.4.39.59.39.97-.13.73-.39,1-.61.41-1.06.41-.77-.14-1.03-.41ZM172.74,43.26h2.37v9.76h-2.37s0-9.76,0-9.76Z"></path><path d="M178.34,43.26h2.29v1.29c.24-.41.62-.77,1.15-1.1.53-.33,1.18-.49,1.95-.49.72,0,1.35.14,1.9.43.55.29.98.71,1.29,1.27s.47,1.25.47,2.08v6.27h-2.35v-5.96c0-.52-.08-.95-.24-1.27-.16-.33-.4-.56-.7-.71-.3-.14-.66-.22-1.08-.22-.54,0-.98.13-1.32.39s-.6.62-.75,1.07c-.16.45-.24.98-.24,1.58v5.12h-2.37v-9.76h0Z"></path><path d="M191.46,55.72c-.81-.61-1.26-1.46-1.35-2.55h2.37c.02.5.24.92.63,1.25s1.01.51,1.86.51,1.51-.24,2-.71c.49-.47.73-1.14.73-2.02v-1.14c-.35.46-.82.81-1.39,1.05-.57.24-1.24.36-2,.36-.8,0-1.53-.19-2.21-.56-.67-.37-1.21-.92-1.6-1.63-.39-.71-.59-1.54-.59-2.48s.19-1.8.57-2.53.9-1.3,1.57-1.71c.67-.41,1.43-.61,2.27-.61s1.51.14,2.05.42.99.63,1.34,1.05v-1.2h2.29v8.76c0,1.48-.46,2.62-1.37,3.42-.92.8-2.14,1.21-3.67,1.21s-2.7-.31-3.51-.92v.03ZM196.5,50.41c.41-.25.73-.59.95-1.04.22-.44.33-.95.33-1.53,0-.63-.11-1.17-.32-1.63-.22-.46-.53-.8-.94-1.04s-.9-.35-1.46-.35-1.09.12-1.49.35c-.41.24-.72.58-.93,1.04-.22.46-.32,1-.32,1.63,0,.88.23,1.58.72,2.13.49.54,1.16.81,2.01.81.56,0,1.05-.12,1.46-.37h0Z"></path><path d="M19.58,60.72c-.25-.27-.38-.61-.38-1s.13-.72.38-.98.6-.39,1.03-.39.8.13,1.06.4.39.59.39.97-.13.73-.39,1-.61.41-1.06.41-.77-.14-1.03-.41ZM19.45,62.86h2.37v9.76h-2.37v-9.76Z"></path><path d="M25.05,62.86h2.29v1.29c.24-.41.62-.77,1.15-1.1.53-.33,1.18-.49,1.95-.49.72,0,1.35.14,1.9.43s.98.71,1.29,1.27c.31.56.47,1.25.47,2.08v6.27h-2.35v-5.96c0-.52-.08-.95-.25-1.27-.16-.33-.4-.56-.7-.71-.3-.14-.66-.22-1.08-.22-.54,0-.98.13-1.32.39-.35.26-.6.62-.75,1.07-.16.45-.24.98-.24,1.58v5.12h-2.37v-9.76h0Z"></path><path d="M42.62,58.8h3.43l6.02,10.55-.02-10.55h2.43v13.82h-3.1l-6.33-11.11v11.11h-2.43s0-13.82,0-13.82Z"></path><path d="M59.79,72.25c-.81-.44-1.45-1.05-1.91-1.83s-.7-1.69-.7-2.7.23-1.9.7-2.69c.46-.78,1.1-1.39,1.91-1.82s1.72-.65,2.74-.65,1.95.22,2.76.65,1.44,1.04,1.9,1.82.69,1.68.69,2.69-.23,1.92-.69,2.7-1.09,1.4-1.9,1.83c-.81.44-1.73.66-2.76.66s-1.93-.22-2.74-.66ZM64.09,70.62c.44-.29.78-.68,1.02-1.19.24-.5.36-1.07.36-1.72s-.12-1.21-.35-1.71c-.24-.5-.57-.89-1.01-1.17-.44-.27-.96-.41-1.56-.41s-1.12.14-1.57.41c-.44.27-.79.66-1.03,1.16-.24.5-.36,1.07-.36,1.72s.12,1.22.37,1.72c.25.51.59.91,1.03,1.19s.95.42,1.54.42,1.12-.14,1.56-.43h0Z"></path><path d="M70.49,62.86h2.29v1.88c.26-.54.66-1,1.21-1.4s1.24-.6,2.11-.6h.24v2.29h-.61c-.68,0-1.23.12-1.66.36s-.73.58-.92,1.03c-.19.44-.28,1-.28,1.67v4.53h-2.37v-9.76h0Z"></path><path d="M79.83,71.82c-.5-.54-.75-1.3-.75-2.29v-4.96h-1.67v-1.71h1.67v-2.47h2.35v2.47h2.2v1.71h-2.2v4.92c0,.44.1.76.31.95.21.19.53.28.96.28h.92v1.9h-1.63c-.94,0-1.66-.27-2.17-.8h.01Z"></path><path d="M86.15,58.8h2.37v5.23c.25-.37.62-.7,1.13-.99.5-.29,1.13-.44,1.89-.44.72,0,1.35.14,1.9.42s.98.71,1.29,1.27c.31.57.47,1.26.47,2.07v6.25h-2.37v-5.86c0-.55-.08-.99-.24-1.33-.16-.34-.39-.59-.69-.74-.3-.16-.67-.24-1.1-.24-.78,0-1.36.27-1.73.81s-.56,1.27-.56,2.19v5.17h-2.37v-13.82h.01Z"></path><path d="M107.16,58.8h3.04l5.63,13.82h-2.76l-1.65-4.43-.14-.43-2.67-6.9-2.61,6.92-.14.47-1.63,4.37h-2.63l5.55-13.82h0ZM105.89,67.21h5.49l.69,1.98h-6.86l.69-1.98h-.01Z"></path><path d="M117.82,62.86h2.27v1.06c.29-.42.64-.75,1.05-.99s.93-.36,1.56-.36c.69,0,1.27.16,1.72.48.46.32.81.71,1.06,1.17.27-.44.68-.83,1.21-1.16.53-.33,1.14-.49,1.83-.49.73,0,1.36.14,1.88.42s.92.68,1.21,1.21c.28.52.42,1.14.42,1.86v6.57h-2.33v-6.21c0-.65-.14-1.15-.42-1.48s-.72-.5-1.32-.5c-.64,0-1.12.2-1.43.61s-.47.97-.47,1.71v5.88h-2.25v-6.21c0-.43-.06-.79-.19-1.09-.12-.29-.32-.52-.59-.67s-.61-.23-1.03-.23-.76.1-1.04.29c-.27.2-.47.46-.6.8-.12.34-.19.74-.19,1.22v5.88h-2.35v-9.76h0Z"></path><path d="M136.82,72.26c-.74-.43-1.31-1.03-1.71-1.81-.39-.78-.59-1.68-.59-2.7s.2-1.94.61-2.72.98-1.39,1.74-1.82c.75-.43,1.63-.65,2.64-.65,1.08,0,2.01.24,2.77.73.76.48,1.33,1.16,1.7,2.02s.51,1.85.43,2.96h-7.55c0,.6.13,1.12.34,1.56.22.44.51.77.9,1,.38.23.85.34,1.38.34.67,0,1.19-.14,1.57-.43s.67-.68.86-1.18h2.33c-.13.54-.38,1.06-.74,1.57-.37.51-.88.93-1.55,1.27s-1.48.51-2.43.51c-1.06,0-1.96-.22-2.71-.65h.01ZM141.63,65.36c-.23-.37-.53-.65-.89-.82-.37-.18-.78-.26-1.24-.26-.74,0-1.34.21-1.78.63-.45.42-.71,1.03-.8,1.84h5.1c-.03-.55-.15-1.01-.38-1.38h0Z"></path><path d="M147.03,62.86h2.29v1.88c.26-.54.66-1,1.21-1.4s1.24-.6,2.11-.6h.24v2.29h-.61c-.68,0-1.23.12-1.66.36-.43.24-.73.58-.92,1.03s-.28,1-.28,1.67v4.53h-2.37v-9.76h-.01Z"></path><path d="M155.13,60.72c-.26-.27-.38-.61-.38-1s.13-.72.38-.98.6-.39,1.03-.39.8.13,1.06.4.39.59.39.97-.13.73-.39,1-.61.41-1.06.41-.77-.14-1.03-.41ZM155.01,62.86h2.37v9.76h-2.37v-9.76Z"></path><path d="M162.46,72.25c-.79-.44-1.4-1.05-1.83-1.83-.43-.78-.65-1.66-.65-2.64s.22-1.91.67-2.69c.44-.79,1.06-1.41,1.85-1.85.79-.44,1.68-.67,2.66-.67,1.03,0,1.92.19,2.65.57s1.3.86,1.71,1.45.64,1.23.71,1.92h-2.37c-.14-.68-.43-1.2-.86-1.55-.43-.35-1.03-.53-1.8-.53-.56,0-1.05.13-1.46.4-.41.27-.74.65-.97,1.15-.24.5-.35,1.09-.35,1.78s.12,1.26.35,1.75c.24.49.56.87.98,1.14s.9.4,1.45.4c.77,0,1.38-.2,1.82-.59s.73-.92.86-1.59h2.35c-.05.64-.27,1.27-.66,1.89s-.95,1.13-1.69,1.54-1.64.61-2.71.61c-1.01,0-1.9-.22-2.69-.67h-.02Z"></path><path d="M173.03,72.11c-.61-.54-.91-1.25-.91-2.16,0-.68.18-1.25.53-1.72s.87-.83,1.55-1.08c.46-.17,1-.29,1.64-.36.63-.07,1.4-.11,2.28-.11h.88v-.37c0-.35-.06-.68-.2-.98-.13-.3-.36-.55-.7-.74-.33-.2-.78-.29-1.34-.29-.67,0-1.19.15-1.56.46s-.57.71-.6,1.21h-2.25c.04-.65.25-1.24.64-1.75.38-.52.91-.92,1.56-1.21s1.4-.43,2.25-.43c.95,0,1.77.16,2.44.48s1.18.78,1.53,1.38c.35.6.52,1.32.52,2.16v6.04h-2.21v-1.27c-.3.43-.73.8-1.28,1.11-.56.31-1.31.46-2.26.46-1.06,0-1.89-.27-2.5-.8v-.03ZM177.69,70.9c.43-.22.75-.53.98-.93.23-.41.34-.87.34-1.39v-.39h-.84c-.72,0-1.3.02-1.74.07-.45.04-.81.13-1.1.25-.31.13-.54.31-.69.53-.14.22-.22.5-.22.82,0,.39.15.72.45.98s.73.39,1.29.39,1.09-.11,1.52-.32h.01Z"></path><path d="M21.95,19.6h-2.5v13.82h2.5s0-13.82,0-13.82Z"></path></g></g></svg>
