<svg fill="currentColor" height="33.0357" viewBox="0 0 2380 425" width="185" xmlns="http://www.w3.org/2000/svg"><g id="Mercatus_Lockup"> <path d="M2293,74.4V24.1h26.1c18.4,0,29,8.7,29,25.1l0,0c0,15.5-10.6,25.1-29,25.1 L2293,74.4L2293,74.4z M2268.8,147.8h24.1V96.6h23.2c0,0,1,0,1.9,0l30.9,51.2h28l-33.8-56c17.4-5.8,29.9-20.3,29.9-42.5v-1 c0-13.5-4.8-24.1-11.6-31.9c-8.7-8.7-22.2-13.5-38.6-13.5h-52.2v144.9H2268.8z M2151,147.8h92.7v-22.2h-68.6V85h59.9V62.8h-59.9 V23.2h67.6V1H2151V147.8z M2067,147.8h24.1V25.1h38.6V2.9h-100.5v22.2h38.6v122.7H2067z M1897,147.8h23.2V48.3l65.7,99.5h20.3V1.9 h-23.2v96.6l-63.7-96.6H1897L1897,147.8L1897,147.8z M1778.2,147.8h92.7v-22.2h-68.6V85h59.9V62.8h-59.9V23.2h67.6V1h-91.8V147.8z  M1709.6,149.7c20.3,0,34.8-7.7,47.3-20.3l-14.5-17.4c-8.7,8.7-18.4,15.5-31.9,15.5c-23.2,0-40.6-20.3-40.6-52.2v-1 c0-30.9,17.4-52.2,40.6-52.2c13.5,0,22.2,5.8,30.9,14.5l14.5-18.4C1744.4,7.7,1730.8,0,1710.6,0c-37.7,0-64.7,29.9-64.7,74.4v1.9 C1645.9,119.8,1671.9,149.7,1709.6,149.7 M1526.1,149.7c27,0,47.3-16.4,47.3-41.5l0,0c0-21.2-12.6-32.8-39.6-42.5 c-25.1-9.7-29.9-14.5-29.9-25.1l0,0c0-9.7,7.7-16.4,21.2-16.4c11.6,0,22.2,5.8,32.8,13.5l13.5-18.4c-13.5-11.6-29-17.4-45.4-17.4 c-27,0-46.4,16.4-46.4,40.6l0,0c0,23.2,14.5,33.8,41.5,43.5c23.2,8.7,28,14.5,28,24.1l0,0c0,10.6-8.7,18.4-23.2,18.4 c-15.5,0-27-7.7-38.6-17.4l-14.5,18.4C1488.4,143,1506.8,149.7,1526.1,149.7 M1399.6,149.7c32.8,0,54.1-19.3,54.1-58.9V1.9h-24.1 v90.8c0,23.2-11.6,34.8-29.9,34.8c-18.4,0-29.9-12.6-29.9-35.7V1.9h-24.1v89.8C1345.5,130.4,1366.7,149.7,1399.6,149.7  M1262.4,147.8h24.1V25.1h38.6V2.9h-100.5v22.2h38.6L1262.4,147.8L1262.4,147.8z M1140.7,91.8l21.2-58l20.3,58H1140.7z  M1097.2,147.8h24.1L1133,114h57l11.6,33.8h25.1L1173.5,1.9h-23.2L1097.2,147.8z M1036.4,149.7c20.3,0,34.8-7.7,47.3-20.3 l-14.5-17.4c-8.7,8.7-18.4,15.5-31.9,15.5c-23.2,0-40.6-20.3-40.6-52.2v-1c0-30.9,17.4-52.2,40.6-52.2c13.5,0,22.2,5.8,30.9,14.5 l14.5-18.4C1071.2,7.7,1057.6,0,1037.3,0c-37.7,0-64.7,29.9-64.7,74.4v1.9C972.6,119.8,998.7,149.7,1036.4,149.7 M873.1,74.4V24.1 h26.1c18.4,0,29,8.7,29,25.1l0,0c0,15.5-10.6,25.1-29,25.1L873.1,74.4L873.1,74.4z M849,147.8h24.1V96.6h23.2c0,0,1,0,1.9,0 l30.9,51.2h28l-33.8-56c17.4-5.8,29.9-20.3,29.9-42.5v-1c0-13.5-4.8-24.1-11.6-31.9C933,7.7,919.5,2.9,903.1,2.9h-52.2v144.9H849z  M730.2,147.8h92.7v-22.2h-68.6V85h59.9V62.8h-59.9V23.2H822V1h-91.8V147.8z M572.8,147.8h23.2V45.4l38.6,66.6h1l38.6-67.6v102.4 h24.1V1h-25.1l-37.7,66.6L597.9,1h-25.1V147.8z" id="Mercatus_Center_Wordmark"></path> <rect height="14.5" id="Divider" width="1804.3" x="572.8" y="204.8"></rect> <path d="M988.1,320.7c-6.8-9.7-16.4-14.5-28-14.5c-17.4,0-35.7,14.5-35.7,42.5 v1c0,28,17.4,42.5,35.7,42.5c10.6,0,20.3-4.8,28-15.5v8.7c0,16.4-8.7,25.1-25.1,25.1c-9.7,0-19.3-2.9-27-8.7l-1-1l-5.8,11.6l1,1 c10.6,6.8,21.2,9.7,33.8,9.7c12.6,0,23.2-3.9,29.9-10.6c6.8-6.8,9.7-15.5,9.7-28v-77.3h-15.5V320.7z M988.1,348.7L988.1,348.7 c0,18.4-12.6,29.9-25.1,29.9c-13.5,0-24.1-12.6-24.1-29l0,0c0-17.4,9.7-29,24.1-29C975.5,318.7,988.1,329.4,988.1,348.7z  M2209,275.3h15.5v16.4H2209V275.3z M1242.1,277.2h14.5V397h-14.5v-91.8l-34.8,59.9h-1.9l-34.8-59.9V397h-14.5V277.2h15.5v1 l34.8,60.9L1242.1,277.2z M1058.6,306.2c-21.2,0-36.7,19.3-36.7,46.4v1c0,26.1,16.4,45.4,39.6,45.4c12.6,0,21.2-3.9,30.9-13.5l1-1 l-8.7-9.7l-1,1c-6.8,6.8-13.5,9.7-22.2,9.7c-13.5,0-24.1-11.6-26.1-28h58v-1c0-1.9,0-3.9,0-4.8 C1094.3,323.6,1079.8,306.2,1058.6,306.2z M1035.4,346.8c1.9-16.4,10.6-28,22.2-28c14.5,0,21.2,14.5,22.2,28H1035.4z M2209,307.2 h14.5V397H2209V307.2z M2265,307.2h23.2v12.6H2265v53.1c0,7.7,3.9,11.6,11.6,11.6c2.9,0,5.8-1,9.7-1.9l1.9-1v12.6h-1 c-4.8,1.9-8.7,2.9-13.5,2.9c-14.5,0-23.2-7.7-23.2-22.2v-55.1h-10.6v-12.6h10.6V282h14.5V307.2z M622,332.3h43.5v52.2l0,0 c-6.8,4.8-20.3,13.5-38.6,13.5c-31.9,0-54.1-24.1-54.1-60.9v-1c0-35.7,22.2-60.9,53.1-60.9c14.5,0,25.1,3.9,35.7,12.6l1,1 l-8.7,11.6l-1-1c-8.7-7.7-16.4-10.6-28-10.6c-22.2,0-37.7,19.3-37.7,47.3v1c0,29,15.5,47.3,38.6,47.3c8.7,0,17.4-2.9,24.1-7.7 v-30.9h-29L622,332.3L622,332.3z M913.7,306.2L913.7,306.2l1,15.5h-1.9c-17.4,0-28,12.6-28,32.8V397h-14.5v-89.8h14.5v15.5 C891.5,312,902.1,306.2,913.7,306.2z M722.5,306.2c-21.2,0-36.7,19.3-36.7,46.4v1c0,26.1,16.4,45.4,39.6,45.4 c12.6,0,21.2-3.9,30.9-13.5v-1l-8.7-9.7l-1,1c-6.8,6.8-13.5,9.7-22.2,9.7c-13.5,0-24.1-11.6-26.1-28h58v-1c0-1.9,0-3.9,0-4.8 C758.2,323.6,743.7,306.2,722.5,306.2z M699.3,346.8c1.9-16.4,10.6-28,22.2-28c14.5,0,21.2,14.5,22.2,28H699.3z M812.3,306.2 c-23.2,0-39.6,19.3-39.6,46.4v1c0,26.1,17.4,45.4,39.6,45.4c23.2,0,39.6-20.3,39.6-46.4v-1C851.9,325.5,835.5,306.2,812.3,306.2z  M837.4,352.5L837.4,352.5c0,20.3-10.6,33.8-25.1,33.8s-25.1-14.5-25.1-32.8v-1c0-19.3,10.6-32.8,25.1-32.8 C826.8,318.7,837.4,333.2,837.4,352.5z M2377,309.1l-30.9,88.9c-5.8,17.4-13.5,25.1-26.1,25.1c-5.8,0-10.6-1-16.4-3.9h-1l4.8-12.6 l1,1c3.9,1.9,6.8,2.9,10.6,2.9c4.8,0,9.7-1.9,13.5-13.5l-33.8-87.9h15.5v1l25.1,68.6l22.2-69.5L2377,309.1z M1474.9,306.2 c-23.2,0-39.6,19.3-39.6,46.4v1c0,26.1,17.4,45.4,39.6,45.4c23.2,0,39.6-20.3,39.6-46.4v-1C1514.5,325.5,1498.1,306.2,1474.9,306.2 z M1501,352.5L1501,352.5c0,19.3-10.6,33.8-25.1,33.8c-14.5,0-25.1-14.5-25.1-32.8v-1c0-19.3,10.6-32.8,25.1-32.8 C1489.4,318.7,1501,333.2,1501,352.5z M1869,275.3h15.5v16.4H1869V275.3z M1869.9,307.2h14.5V397h-14.5V307.2z M2120.1,306.2h1 v15.5h-1.9c-17.4,0-28,12.6-28,32.8V397h-14.5v-89.8h14.5v15.5c5.8-10.6,16.4-16.4,27-16.4C2119.1,306.2,2119.1,306.2,2120.1,306.2 z M1311.7,306.2c-11.6,0-20.3,3.9-28,6.8h-1l4.8,11.6l1-1c6.8-3.9,14.5-5.8,22.2-5.8c13.5,0,21.2,7.7,21.2,20.3v3.9 c-5.8-1.9-12.6-2.9-21.2-2.9c-20.3,0-32.8,11.6-32.8,29v1c0,18.4,14.5,28,29,28c12.6,0,21.2-5.8,25.1-12.6V395h13.5v-57 c0-10.6-2.9-18.4-8.7-24.1C1331,309.1,1322.3,306.2,1311.7,306.2z M1331,355.4v9.7c0,5.8-1.9,10.6-5.8,14.5 c-3.9,3.9-10.6,6.8-16.4,6.8l0,0l0,0c-10.6,0-17.4-6.8-17.4-16.4v-1c0-10.6,7.7-17.4,20.3-17.4 C1318.4,352.5,1325.2,353.5,1331,355.4z M1962.7,307.2h15.5l-1,1.9l-31.9,88.9h-12.6v-1l-32.8-89.8h15.5v1l23.2,68.6L1962.7,307.2z  M1846.8,339v58h-14.5v-55.1c0-14.5-6.8-23.2-19.3-23.2c-12.6,0-21.2,9.7-21.2,24.1V397h-14.5v-89.8h14.5v11.6 c5.8-8.7,14.5-13.5,25.1-13.5C1835.2,306.2,1846.8,318.7,1846.8,339z M2191.6,371.9L2191.6,371.9c0,15.5-12.6,26.1-29,26.1 c-11.6,0-23.2-4.8-31.9-12.6l-1-1l7.7-10.6l1,1c7.7,6.8,16.4,10.6,25.1,10.6c8.7,0,15.5-4.8,15.5-12.6c0-6.8-5.8-10.6-18.4-15.5 c-14.5-5.8-26.1-12.6-26.1-26.1l0,0c0-14.5,11.6-25.1,28-25.1c9.7,0,20.3,3.9,28,9.7l1,1l-6.8,10.6l-1-1 c-7.7-4.8-14.5-7.7-21.2-7.7c-8.7,0-13.5,4.8-13.5,11.6l0,0c0,6.8,6.8,9.7,18.4,15.5C2180,351.6,2191.6,357.4,2191.6,371.9z  M1738.6,277.2h14.5v74.4c0,29.9-16.4,47.3-43.5,47.3c-26.1,0-42.5-18.4-42.5-46.4v-74.4h14.5v74.4c0,21.2,10.6,32.8,29,32.8 s28-11.6,28-32.8V277.2L1738.6,277.2z M1421.8,371.9L1421.8,371.9c0,15.5-12.6,26.1-29,26.1c-11.6,0-23.2-4.8-31.9-12.6l-1-1 l7.7-10.6l1,1c7.7,6.8,16.4,10.6,25.1,10.6c8.7,0,15.5-4.8,15.5-12.6c0-6.8-5.8-10.6-18.4-15.5c-14.5-5.8-26.1-12.6-26.1-26.1l0,0 c0-14.5,11.6-25.1,28-25.1c9.7,0,20.3,3.9,28,9.7l1,1l-6.8,10.6l-1.9-1c-7.7-4.8-14.5-7.7-21.2-7.7c-8.7,0-13.5,4.8-13.5,11.6l0,0 c0,6.8,6.8,9.7,18.4,15.5C1410.2,351.6,1421.8,357.4,1421.8,371.9z M1602.4,339v58h-14.5v-55.1c0-14.5-6.8-23.2-19.3-23.2 c-12.6,0-21.2,9.7-21.2,24.1V397h-14.5v-89.8h14.5v11.6c5.8-8.7,14.5-13.5,25.1-13.5C1590.8,306.2,1602.4,318.7,1602.4,339z  M2022.5,306.2c-21.2,0-36.7,19.3-36.7,46.4v1c0,26.1,16.4,45.4,39.6,45.4c12.6,0,21.2-3.9,30.9-13.5l1-1l-8.7-9.7l-1,1 c-6.8,6.8-13.5,9.7-22.2,9.7c-13.5,0-24.1-11.6-26.1-28h58v-1c0-1.9,0-3.9,0-4.8C2058.3,323.6,2043.8,306.2,2022.5,306.2z  M1999.4,346.8c1.9-16.4,10.6-28,22.2-28c14.5,0,21.2,14.5,22.2,28H1999.4z" id="George_Mason_University_Wordmark"></path> <path d="M180.4,0h151.3L256,182.6L180.4,0z M335.5,35.1l-70.3,169.7l70.3,169.7V35.1z  M8.4,400h151.1V35.1L8.4,400z M512,375.8V0H356.4L512,375.8z M155.6,0H0v375.8L155.6,0z M352.5,35.1V400h151.1L352.5,35.1z  M246.8,204.8L176.5,35.1v339.4L246.8,204.8z M256,227l-71.6,173h143.3L256,227z" id="Mercatus_Brandmark"></path> </g> </svg>