<svg xmlns="http://www.w3.org/2000/svg" width="78" height="65" viewBox="0 0 78 65"><defs><style>.a{fill:#42bd87;}.b{fill:#199fbf;}.c{fill:#26403a;}.d{fill:#f26e61;}</style></defs><path class="a" d="M437.017,152.581a16.766,16.766,0,0,1,18.91-5.835,19.343,19.343,0,0,1,7.492,4.969c4.637-5.617,7.776-13.1,5.069-20.082-3.855-9.911-16.91-14.466-26-10.277s-13.349,15.634-9.494,25.546a19.177,19.177,0,0,0,2.813,4.985v.015q.439.567.914,1.091c.1-.133.194-.268.3-.4Z" transform="translate(-404.491 -119.8)"/><path class="b" d="M464.975,179.57c-.25-.292-.51-.574-.773-.852l-.128.157a19.862,19.862,0,0,1-6.885,5.383A16.8,16.8,0,0,1,437.5,180a19.859,19.859,0,0,0-3.049,6.138c-3.009,10.123-.315,21.421,8.967,24.717s23.1-2.181,26.113-12.3C471.515,191.881,469.348,184.661,464.975,179.57Z" transform="translate(-405.273 -146.804)"/><path class="c" d="M460.763,179.254a19.862,19.862,0,0,0,6.885-5.383l.128-.157a19.344,19.344,0,0,0-7.492-4.969,16.766,16.766,0,0,0-18.91,5.835v.015c-.1.129-.2.264-.3.4A16.8,16.8,0,0,0,460.763,179.254Z" transform="translate(-408.847 -141.8)"/><path class="d" d="M394.095,156.8c-6.415.024-12.542,5.894-12.521,13.074s6.184,12.95,12.6,12.926,13.422-5.893,13.4-13.073S400.51,156.776,394.095,156.8Z" transform="translate(-381.574 -136.758)"/></svg>
